<mxfile host="app.diagrams.net" agent="Mozilla/5.0 (Windows NT 10.0; Win64; x64) AppleWebKit/537.36 (KHTML, like Gecko) Chrome/134.0.0.0 Safari/537.36 Edg/134.0.0.0" version="26.2.2">
  <diagram name="Page-1" id="nXARIEtgVxgaWy_eNkT4">
    <mxGraphModel dx="2200" dy="754" grid="1" gridSize="10" guides="1" tooltips="1" connect="1" arrows="1" fold="1" page="1" pageScale="1" pageWidth="827" pageHeight="1169" math="0" shadow="0">
      <root>
        <mxCell id="0" />
        <mxCell id="1" parent="0" />
        <mxCell id="Yo132WwTSJJSO0hYH0_1-48" value="" style="swimlane;startSize=0;labelBackgroundColor=none;fillColor=#1ba1e2;strokeColor=#006EAF;fontColor=#ffffff;" vertex="1" parent="1">
          <mxGeometry x="190" y="40" width="610" height="680" as="geometry" />
        </mxCell>
        <mxCell id="Yo132WwTSJJSO0hYH0_1-115" style="edgeStyle=orthogonalEdgeStyle;rounded=0;orthogonalLoop=1;jettySize=auto;html=1;exitX=0.5;exitY=1;exitDx=0;exitDy=0;entryX=0.5;entryY=0;entryDx=0;entryDy=0;dashed=1;labelBackgroundColor=none;strokeColor=#736CA8;fontColor=default;" edge="1" parent="Yo132WwTSJJSO0hYH0_1-48" source="Yo132WwTSJJSO0hYH0_1-89" target="Yo132WwTSJJSO0hYH0_1-114">
          <mxGeometry relative="1" as="geometry" />
        </mxCell>
        <mxCell id="Yo132WwTSJJSO0hYH0_1-89" value="Kundenliste anzeigen" style="ellipse;whiteSpace=wrap;html=1;labelBackgroundColor=none;fillColor=#5D7F99;strokeColor=#D0CEE2;fontColor=#1A1A1A;" vertex="1" parent="Yo132WwTSJJSO0hYH0_1-48">
          <mxGeometry x="20" y="10" width="140" height="70" as="geometry" />
        </mxCell>
        <mxCell id="Yo132WwTSJJSO0hYH0_1-90" value="Kunden hinzufügen" style="ellipse;whiteSpace=wrap;html=1;labelBackgroundColor=none;fillColor=#5D7F99;strokeColor=#D0CEE2;fontColor=#1A1A1A;" vertex="1" parent="Yo132WwTSJJSO0hYH0_1-48">
          <mxGeometry x="40" y="580" width="140" height="70" as="geometry" />
        </mxCell>
        <mxCell id="Yo132WwTSJJSO0hYH0_1-93" value="Kundendetails anzeigen" style="ellipse;whiteSpace=wrap;html=1;labelBackgroundColor=none;fillColor=#5D7F99;strokeColor=#D0CEE2;fontColor=#1A1A1A;" vertex="1" parent="Yo132WwTSJJSO0hYH0_1-48">
          <mxGeometry x="340" y="50" width="140" height="70" as="geometry" />
        </mxCell>
        <mxCell id="Yo132WwTSJJSO0hYH0_1-100" style="rounded=0;orthogonalLoop=1;jettySize=auto;html=1;exitX=0;exitY=1;exitDx=0;exitDy=0;entryX=0.5;entryY=0;entryDx=0;entryDy=0;dashed=1;labelBackgroundColor=none;strokeColor=#736CA8;fontColor=default;" edge="1" parent="Yo132WwTSJJSO0hYH0_1-48" source="Yo132WwTSJJSO0hYH0_1-96" target="Yo132WwTSJJSO0hYH0_1-99">
          <mxGeometry relative="1" as="geometry" />
        </mxCell>
        <mxCell id="Yo132WwTSJJSO0hYH0_1-96" value="Kunde bearbeiten" style="ellipse;whiteSpace=wrap;html=1;labelBackgroundColor=none;fillColor=#5D7F99;strokeColor=#D0CEE2;fontColor=#1A1A1A;" vertex="1" parent="Yo132WwTSJJSO0hYH0_1-48">
          <mxGeometry x="330" y="150" width="140" height="70" as="geometry" />
        </mxCell>
        <mxCell id="Yo132WwTSJJSO0hYH0_1-99" value="Kunde Löschen&lt;br&gt;(nur Admin)" style="ellipse;whiteSpace=wrap;html=1;labelBackgroundColor=none;fillColor=#5D7F99;strokeColor=#D0CEE2;fontColor=#1A1A1A;" vertex="1" parent="Yo132WwTSJJSO0hYH0_1-48">
          <mxGeometry x="200" y="250" width="140" height="70" as="geometry" />
        </mxCell>
        <mxCell id="Yo132WwTSJJSO0hYH0_1-101" value="&amp;lt;&amp;lt;include&amp;gt;&amp;gt;" style="text;html=1;align=center;verticalAlign=middle;resizable=0;points=[];autosize=1;strokeColor=none;fillColor=none;labelBackgroundColor=none;fontColor=#1A1A1A;" vertex="1" parent="Yo132WwTSJJSO0hYH0_1-48">
          <mxGeometry x="295" y="220" width="90" height="30" as="geometry" />
        </mxCell>
        <mxCell id="Yo132WwTSJJSO0hYH0_1-102" value="Steuerjahre anzeigen" style="ellipse;whiteSpace=wrap;html=1;labelBackgroundColor=none;fillColor=#5D7F99;strokeColor=#D0CEE2;fontColor=#1A1A1A;" vertex="1" parent="Yo132WwTSJJSO0hYH0_1-48">
          <mxGeometry x="270" y="340" width="140" height="70" as="geometry" />
        </mxCell>
        <mxCell id="Yo132WwTSJJSO0hYH0_1-105" value="Steuerjahre hinzufügen" style="ellipse;whiteSpace=wrap;html=1;labelBackgroundColor=none;fillColor=#5D7F99;strokeColor=#D0CEE2;fontColor=#1A1A1A;" vertex="1" parent="Yo132WwTSJJSO0hYH0_1-48">
          <mxGeometry x="270" y="420" width="140" height="70" as="geometry" />
        </mxCell>
        <mxCell id="Yo132WwTSJJSO0hYH0_1-110" style="rounded=0;orthogonalLoop=1;jettySize=auto;html=1;exitX=1;exitY=1;exitDx=0;exitDy=0;entryX=0;entryY=0.5;entryDx=0;entryDy=0;dashed=1;labelBackgroundColor=none;strokeColor=#736CA8;fontColor=default;" edge="1" parent="Yo132WwTSJJSO0hYH0_1-48" source="Yo132WwTSJJSO0hYH0_1-107" target="Yo132WwTSJJSO0hYH0_1-109">
          <mxGeometry relative="1" as="geometry" />
        </mxCell>
        <mxCell id="Yo132WwTSJJSO0hYH0_1-107" value="Steuerjahre bearbeiten" style="ellipse;whiteSpace=wrap;html=1;labelBackgroundColor=none;fillColor=#5D7F99;strokeColor=#D0CEE2;fontColor=#1A1A1A;" vertex="1" parent="Yo132WwTSJJSO0hYH0_1-48">
          <mxGeometry x="280" y="520" width="140" height="70" as="geometry" />
        </mxCell>
        <mxCell id="Yo132WwTSJJSO0hYH0_1-109" value="Steuerjahre löschen&lt;br&gt;(nur Admin)" style="ellipse;whiteSpace=wrap;html=1;labelBackgroundColor=none;fillColor=#5D7F99;strokeColor=#D0CEE2;fontColor=#1A1A1A;" vertex="1" parent="Yo132WwTSJJSO0hYH0_1-48">
          <mxGeometry x="450" y="590" width="140" height="70" as="geometry" />
        </mxCell>
        <mxCell id="Yo132WwTSJJSO0hYH0_1-111" value="&amp;lt;&amp;lt;include&amp;gt;&amp;gt;" style="text;html=1;align=center;verticalAlign=middle;resizable=0;points=[];autosize=1;strokeColor=none;fillColor=none;labelBackgroundColor=none;fontColor=#1A1A1A;" vertex="1" parent="Yo132WwTSJJSO0hYH0_1-48">
          <mxGeometry x="345" y="600" width="90" height="30" as="geometry" />
        </mxCell>
        <mxCell id="Yo132WwTSJJSO0hYH0_1-114" value="Kunde suchen" style="ellipse;whiteSpace=wrap;html=1;labelBackgroundColor=none;fillColor=#5D7F99;strokeColor=#D0CEE2;fontColor=#1A1A1A;" vertex="1" parent="Yo132WwTSJJSO0hYH0_1-48">
          <mxGeometry x="20" y="110" width="140" height="70" as="geometry" />
        </mxCell>
        <mxCell id="Yo132WwTSJJSO0hYH0_1-116" value="&amp;lt;&amp;lt;include&amp;gt;&amp;gt;" style="text;html=1;align=center;verticalAlign=middle;resizable=0;points=[];autosize=1;strokeColor=none;fillColor=none;labelBackgroundColor=none;fontColor=#1A1A1A;" vertex="1" parent="Yo132WwTSJJSO0hYH0_1-48">
          <mxGeometry x="90" y="80" width="90" height="30" as="geometry" />
        </mxCell>
        <mxCell id="Yo132WwTSJJSO0hYH0_1-91" style="rounded=0;orthogonalLoop=1;jettySize=auto;html=1;exitX=0.5;exitY=0.5;exitDx=0;exitDy=0;exitPerimeter=0;entryX=0;entryY=0.5;entryDx=0;entryDy=0;endArrow=none;startFill=0;labelBackgroundColor=none;strokeColor=#736CA8;fontColor=default;" edge="1" parent="1" source="Yo132WwTSJJSO0hYH0_1-49" target="Yo132WwTSJJSO0hYH0_1-89">
          <mxGeometry relative="1" as="geometry" />
        </mxCell>
        <mxCell id="Yo132WwTSJJSO0hYH0_1-92" style="rounded=0;orthogonalLoop=1;jettySize=auto;html=1;exitX=0.5;exitY=0.5;exitDx=0;exitDy=0;exitPerimeter=0;entryX=0;entryY=0.5;entryDx=0;entryDy=0;endArrow=none;startFill=0;labelBackgroundColor=none;strokeColor=#736CA8;fontColor=default;" edge="1" parent="1" source="Yo132WwTSJJSO0hYH0_1-49" target="Yo132WwTSJJSO0hYH0_1-90">
          <mxGeometry relative="1" as="geometry" />
        </mxCell>
        <mxCell id="Yo132WwTSJJSO0hYH0_1-95" style="rounded=0;orthogonalLoop=1;jettySize=auto;html=1;exitX=0.5;exitY=0.5;exitDx=0;exitDy=0;exitPerimeter=0;entryX=0;entryY=0.5;entryDx=0;entryDy=0;endArrow=none;startFill=0;labelBackgroundColor=none;strokeColor=#736CA8;fontColor=default;" edge="1" parent="1" source="Yo132WwTSJJSO0hYH0_1-49" target="Yo132WwTSJJSO0hYH0_1-93">
          <mxGeometry relative="1" as="geometry" />
        </mxCell>
        <mxCell id="Yo132WwTSJJSO0hYH0_1-98" style="rounded=0;orthogonalLoop=1;jettySize=auto;html=1;exitX=0.5;exitY=0.5;exitDx=0;exitDy=0;exitPerimeter=0;entryX=0;entryY=0.5;entryDx=0;entryDy=0;endArrow=none;startFill=0;labelBackgroundColor=none;strokeColor=#736CA8;fontColor=default;" edge="1" parent="1" source="Yo132WwTSJJSO0hYH0_1-49" target="Yo132WwTSJJSO0hYH0_1-96">
          <mxGeometry relative="1" as="geometry" />
        </mxCell>
        <mxCell id="Yo132WwTSJJSO0hYH0_1-103" style="rounded=0;orthogonalLoop=1;jettySize=auto;html=1;exitX=0.5;exitY=0.5;exitDx=0;exitDy=0;exitPerimeter=0;entryX=0;entryY=0.5;entryDx=0;entryDy=0;endArrow=none;startFill=0;labelBackgroundColor=none;strokeColor=#736CA8;fontColor=default;" edge="1" parent="1" source="Yo132WwTSJJSO0hYH0_1-49" target="Yo132WwTSJJSO0hYH0_1-102">
          <mxGeometry relative="1" as="geometry" />
        </mxCell>
        <mxCell id="Yo132WwTSJJSO0hYH0_1-106" style="rounded=0;orthogonalLoop=1;jettySize=auto;html=1;exitX=0.5;exitY=0.5;exitDx=0;exitDy=0;exitPerimeter=0;entryX=0;entryY=0.5;entryDx=0;entryDy=0;endArrow=none;startFill=0;labelBackgroundColor=none;strokeColor=#736CA8;fontColor=default;" edge="1" parent="1" source="Yo132WwTSJJSO0hYH0_1-49" target="Yo132WwTSJJSO0hYH0_1-105">
          <mxGeometry relative="1" as="geometry" />
        </mxCell>
        <mxCell id="Yo132WwTSJJSO0hYH0_1-108" style="rounded=0;orthogonalLoop=1;jettySize=auto;html=1;exitX=0.5;exitY=0.5;exitDx=0;exitDy=0;exitPerimeter=0;entryX=0;entryY=0;entryDx=0;entryDy=0;endArrow=none;startFill=0;labelBackgroundColor=none;strokeColor=#736CA8;fontColor=default;" edge="1" parent="1" source="Yo132WwTSJJSO0hYH0_1-49" target="Yo132WwTSJJSO0hYH0_1-107">
          <mxGeometry relative="1" as="geometry" />
        </mxCell>
        <mxCell id="Yo132WwTSJJSO0hYH0_1-49" value="Mitarbeiter&lt;br&gt;(Admin/Advisor)" style="shape=umlActor;verticalLabelPosition=bottom;verticalAlign=top;html=1;outlineConnect=0;fillColor=#008a00;fontColor=#ffffff;strokeColor=#005700;labelBackgroundColor=none;" vertex="1" parent="1">
          <mxGeometry x="10" y="320" width="30" height="60" as="geometry" />
        </mxCell>
        <mxCell id="Yo132WwTSJJSO0hYH0_1-94" style="rounded=0;orthogonalLoop=1;jettySize=auto;html=1;exitX=0.5;exitY=0.5;exitDx=0;exitDy=0;exitPerimeter=0;entryX=1;entryY=0.5;entryDx=0;entryDy=0;endArrow=none;startFill=0;labelBackgroundColor=none;strokeColor=#736CA8;fontColor=default;" edge="1" parent="1" source="Yo132WwTSJJSO0hYH0_1-50" target="Yo132WwTSJJSO0hYH0_1-93">
          <mxGeometry relative="1" as="geometry" />
        </mxCell>
        <mxCell id="Yo132WwTSJJSO0hYH0_1-97" style="rounded=0;orthogonalLoop=1;jettySize=auto;html=1;exitX=0.5;exitY=0.5;exitDx=0;exitDy=0;exitPerimeter=0;entryX=1;entryY=0.5;entryDx=0;entryDy=0;endArrow=none;startFill=0;labelBackgroundColor=none;strokeColor=#736CA8;fontColor=default;" edge="1" parent="1" source="Yo132WwTSJJSO0hYH0_1-50" target="Yo132WwTSJJSO0hYH0_1-96">
          <mxGeometry relative="1" as="geometry" />
        </mxCell>
        <mxCell id="Yo132WwTSJJSO0hYH0_1-104" style="rounded=0;orthogonalLoop=1;jettySize=auto;html=1;exitX=0.5;exitY=0.5;exitDx=0;exitDy=0;exitPerimeter=0;entryX=1;entryY=0.5;entryDx=0;entryDy=0;endArrow=none;startFill=0;labelBackgroundColor=none;strokeColor=#736CA8;fontColor=default;" edge="1" parent="1" source="Yo132WwTSJJSO0hYH0_1-50" target="Yo132WwTSJJSO0hYH0_1-102">
          <mxGeometry relative="1" as="geometry" />
        </mxCell>
        <mxCell id="Yo132WwTSJJSO0hYH0_1-50" value="Client" style="shape=umlActor;verticalLabelPosition=bottom;verticalAlign=top;html=1;outlineConnect=0;fillColor=#6a00ff;fontColor=#ffffff;strokeColor=#3700CC;labelBackgroundColor=none;" vertex="1" parent="1">
          <mxGeometry x="900" y="320" width="30" height="60" as="geometry" />
        </mxCell>
        <mxCell id="Yo132WwTSJJSO0hYH0_1-117" value="Steuerverwaltungsplattform" style="text;html=1;align=center;verticalAlign=middle;resizable=0;points=[];autosize=1;strokeColor=none;fillColor=none;labelBackgroundColor=none;fontColor=#1A1A1A;" vertex="1" parent="1">
          <mxGeometry x="430" y="10" width="170" height="30" as="geometry" />
        </mxCell>
        <mxCell id="Yo132WwTSJJSO0hYH0_1-118" value="Mitarbeiter&lt;br&gt;(Admin/Advisor)" style="text;html=1;align=center;verticalAlign=middle;resizable=0;points=[];autosize=1;strokeColor=none;fillColor=none;labelBackgroundColor=none;fontColor=#1A1A1A;" vertex="1" parent="1">
          <mxGeometry x="-30" y="380" width="110" height="40" as="geometry" />
        </mxCell>
        <mxCell id="Yo132WwTSJJSO0hYH0_1-119" value="Kunde&lt;br&gt;(Client)" style="text;html=1;align=center;verticalAlign=middle;resizable=0;points=[];autosize=1;strokeColor=none;fillColor=none;labelBackgroundColor=none;fontColor=#1A1A1A;" vertex="1" parent="1">
          <mxGeometry x="885" y="390" width="60" height="40" as="geometry" />
        </mxCell>
      </root>
    </mxGraphModel>
  </diagram>
</mxfile>
